<?xml version="1.0" encoding="utf-8"?>
<!-- Generator: Adobe Illustrator 27.3.1, SVG Export Plug-In . SVG Version: 6.00 Build 0)  -->
<svg version="1.1" id="Layer_1" xmlns="http://www.w3.org/2000/svg" xmlns:xlink="http://www.w3.org/1999/xlink" x="0px" y="0px"
	 viewBox="0 0 225.2 89" style="enable-background:new 0 0 225.2 89;" xml:space="preserve">
<style type="text/css">
	.st0{display:none;opacity:0.6;fill:url(#SVGID_1_);enable-background:new    ;}
	.st1{opacity:0.1;}
	.st2{fill:#FFFFFF;}
	.st3{font-family:'TimesNewRomanPS-BoldMT';}
	.st4{font-size:16.3959px;}
	.st5{font-family:'ArtifaktElement-Hair';}
	.st6{font-size:16.001px;}
	.st7{letter-spacing:2.8;}
	.st8{display:none;}
	.st9{display:inline;}
	.st10{fill:#109ED9;}
	.st11{fill:none;stroke:#FFFFFF;stroke-width:4;stroke-miterlimit:10;}
	.st12{fill:#FFFFFF;stroke:#FFFFFF;stroke-width:4;stroke-miterlimit:10;}
	.st13{clip-path:url(#SVGID_00000118393275407244285480000015930005111791126401_);}
	.st14{opacity:0.6;}
	.st15{fill:url(#SVGID_00000057143443234657893820000001700016141696946068_);}
	.st16{fill:url(#SVGID_00000168088099336896786460000012171940750569144500_);}
	.st17{fill:url(#SVGID_00000046337532446091495290000005210224760607547578_);}
</style>
<linearGradient id="SVGID_1_" gradientUnits="userSpaceOnUse" x1="0" y1="46.5746" x2="225.2" y2="46.5746" gradientTransform="matrix(1 0 0 -1 0 93.4609)">
	<stop  offset="2.680000e-02" style="stop-color:#03B290"/>
	<stop  offset="0.2421" style="stop-color:#1BB47B;stop-opacity:0.9663"/>
	<stop  offset="0.6648" style="stop-color:#54B848;stop-opacity:0.9"/>
	<stop  offset="0.9419" style="stop-color:#54B848"/>
</linearGradient>
<path class="st0" d="M194.7,89H30.5C13.6,89,0,75.3,0,58.5V35.3C0,18.4,13.6,4.8,30.5,4.8h164.3c16.8,0,30.5,13.6,30.5,30.5v23.2
	C225.2,75.3,211.6,89,194.7,89z"/>
<g class="st1">
	<g>
		<path class="st2" d="M223.3,63.6c-26.7-12.1-57.9-13.3-82,4.7c-7.8,5.6-14.6,12.7-20.4,20.8c3.5-9.4,9.6-17.9,17.3-24.7
			C162.1,43,198.7,44,223.3,63.6L223.3,63.6z"/>
	</g>
	<g>
		<path class="st2" d="M207.5,31c-26.4-6-56.1-3.4-77.9,13.5c-13.2,10-22.7,23.6-29.2,39.1c1.8-11.2,6.5-22,13.5-31.2
			C135.3,23.2,175.5,15.7,207.5,31L207.5,31z"/>
	</g>
	<g>
		<path class="st2" d="M198.1,9.4c-26.4-6-56.1-3.4-77.9,13.5c-13.2,10-22.7,23.6-29.2,39.1c1.8-11.2,6.5-22,13.5-31.2
			C125.9,1.5,166.1-6,198.1,9.4L198.1,9.4z"/>
	</g>
</g>
<text transform="matrix(1 0 0 1 86.6448 45.571)" class="st2 st3 st4">DeBTHs GLOBAL</text>
<text transform="matrix(1.0583 0 0 1 86.8568 68.1696)" class="st2 st5 st6 st7">Consultancy</text>
<g class="st8">
	<g class="st9">
		<path class="st10" d="M56.8,18.2c6.2,0,10.8-0.9,16.2-4C73.4,22.7,60.5,25.7,56.8,18.2L56.8,18.2z"/>
	</g>
	<g class="st9">
		<path class="st10" d="M59.3,23.4c3.5-0.7,6.4-1.2,9.3-2.6c3-1.4,5.1-3.2,7.7-5.7C78.2,24.2,65.4,30.2,59.3,23.4L59.3,23.4z"/>
	</g>
	<g class="st9">
		<path class="st10" d="M60.8,26.8c3.5-0.7,6.4-1.2,9.3-2.6c3-1.4,5.1-3.2,7.7-5.7C79.7,27.6,66.8,33.6,60.8,26.8L60.8,26.8z"/>
	</g>
</g>
<g>
	<path class="st11" d="M46.5,38.4c-0.7,2-2,3.3-3.4,4.4c-1.7,1.3-3.8,2.9-7,3.1c-0.4,0-0.8,0-1.1,0c-1.7-0.2-3.2-0.8-4.5-1.5
		c-2.7-1.2-3.3-1.6-5.3-1.8c-2.2-0.3-3.8,0.2-4.5,0.5c-2.8,1.4-4.1,3.5-4.8,4.9c-1.5,2.9-1.7,5.5-1.7,6.9C14,56.4,14,58.7,15,61.4
		c0.2,0.5,0.8,2,2,3.5c-2.9-0.7-3.7-0.9-5.1-1.6c-1.7-0.9-3.4-1.7-4.8-3.5c-1.9-2.5-2-5.1-2.1-6.3c-0.2-3,0.8-5.3,1.5-6.8
		c1.7-3.6,4.1-5.7,5.5-6.9c2.9-2.4,5.7-4.3,10.2-5.9c2.4-0.9,5.7-1.7,10.7-2.3c0.6-0.1,4-0.6,7.7-0.2c0.4,0,2.4,0.4,4.5,1.4
		c1.1,0.5,1.3,0.9,1.4,1.1C47.8,35.4,46.7,37.8,46.5,38.4z"/>
	<path class="st11" d="M62.7,57.5c-0.3,0.7-0.6,1.3-1,1.9c-0.7-0.2-1.5-0.4-2.2-0.5c-1.3-0.3-4-0.7-7.5-0.2c-1.4,0.2-3,0.6-10.8,3.9
		c-3.8,1.6-5.7,2.4-6.6,2.8c-2.4,1.1-4.1,2.1-5.7,2.8c-0.3-0.1-0.6-0.3-0.9-0.4c-1.2-0.5-3.5-1.1-8.1-2.2c-1.1-0.3-2.1-0.5-2.9-0.7
		c-1.2-1.5-1.8-3-2-3.5c-1.1-2.7-1-5.1-0.9-6.6c0.1-1.5,0.2-4.1,1.7-6.9c0.7-1.4,2-3.5,4.8-4.9c0.7-0.4,2.3-0.8,4.5-0.5
		c2,0.3,2.5,0.6,5.3,1.8c1.3,0.6,2.8,1.3,4.5,1.5l-8.7,3.9c-0.2,0.1-1.8,0.8-2.6,2.3c-0.6,1.2-0.5,2.6,0,3.6
		c0.9,1.7,2.3,2.4,3.7,2.6c2.8,0.4,5.8-0.9,7.6-1.6c1.9-0.8,3.6-2,6.8-4.4c2.3-1.7,2.7-2.1,5.5-4.1c3.3-2.4,5-3.7,6.2-3.9
		c2.8-0.5,6,0.6,8.1,2.9c0.3,0.3,1.7,1.9,2.1,4.5C63.7,52.2,64,54.4,62.7,57.5z"/>
	<line class="st11" x1="35.3" y1="45.6" x2="34.9" y2="45.8"/>
	<path class="st11" d="M61.7,59.4c-3.8,6.4-11.3,9.4-12.6,9.9c-5,2-8.9,1.9-9.9,1.8c-2.4-0.1-4.3-0.5-5.5-0.9
		c-2.2-0.6-2.9-1.2-4.8-2.1c1.6-0.7,3.3-1.6,5.7-2.8c0.9-0.4,2.8-1.2,6.6-2.8c7.8-3.3,9.4-3.7,10.8-3.9c3.4-0.5,6.1-0.1,7.5,0.2
		C60.2,59,61,59.2,61.7,59.4z"/>
	<path class="st12" d="M17,64.9c1,1.2,2.3,2.5,4.2,3.3c1.3,0.6,2.4,0.7,2.7,0.8c1.8,0.2,3.3-0.1,5-0.9"/>
	<path class="st11" d="M63.2,59.7c1.6,0.4,3.1,1.1,4.5,2.5c0.8,0.8,2.5,2.7,2.8,5.6c0.6,4.7-3,8.1-3.9,8.9c-2.9,2.6-6.2,2.8-8.1,3
		c-0.1,0-0.1,0-0.2,0c-1.1,0.1-4.9,0.1-6.6-1.7c-0.3-0.3-0.9-0.9-1.1-1.9c-0.1-0.4-0.3-1.4,0.2-1.8c0.7-0.6,2.4,0,3.4,1
		c0.6,0.6,0.5,1,1.1,2c0.1,0.2,0.9,1.3,2,1.9c0.3,0.2,0.7,0.3,1,0.4c1.7,0.5,3.5-0.1,4-0.2"/>
</g>
<g>
	<g>
		<defs>
			<circle id="SVGID_00000051372177092801234070000003326293653680086716_" cx="65" cy="33.4" r="6.4"/>
		</defs>
		<clipPath id="SVGID_00000065757445589717955020000001263432304106790567_">
			<use xlink:href="#SVGID_00000051372177092801234070000003326293653680086716_"  style="overflow:visible;"/>
		</clipPath>
		<g style="clip-path:url(#SVGID_00000065757445589717955020000001263432304106790567_);">
			<circle class="st12" cx="65" cy="33.4" r="4.2"/>
			<g class="st14">
				<g>
					
						<linearGradient id="SVGID_00000124859496592192644730000006331214480437533589_" gradientUnits="userSpaceOnUse" x1="55.3767" y1="63.3001" x2="69.2504" y2="63.3001" gradientTransform="matrix(1 0 0 -1 0 93.4609)">
						<stop  offset="2.680000e-02" style="stop-color:#03B290"/>
						<stop  offset="0.2421" style="stop-color:#1BB47B;stop-opacity:0.9663"/>
						<stop  offset="0.6648" style="stop-color:#54B848;stop-opacity:0.9"/>
						<stop  offset="0.9419" style="stop-color:#54B848"/>
					</linearGradient>
					<path style="fill:url(#SVGID_00000124859496592192644730000006331214480437533589_);" d="M55.7,30.7c2.4,0.8,4.8,1.2,7.1,0.7
						c1.1-0.3,2.2-0.7,3.2-1.4s1.9-1.5,2.7-2.5c-0.4,1.2-1.1,2.4-2.1,3.3c-0.5,0.5-1,0.8-1.6,1.2c-0.6,0.3-1.2,0.6-1.9,0.7
						c-1.3,0.3-2.7,0.3-4-0.1C57.9,32.2,56.7,31.6,55.7,30.7z"/>
				</g>
				<g>
					
						<linearGradient id="SVGID_00000133487183499179593360000010547611593309469851_" gradientUnits="userSpaceOnUse" x1="57.4961" y1="61.3646" x2="71.8974" y2="61.3646" gradientTransform="matrix(1 0 0 -1 0 93.4609)">
						<stop  offset="2.680000e-02" style="stop-color:#03B290"/>
						<stop  offset="0.2421" style="stop-color:#1BB47B;stop-opacity:0.9663"/>
						<stop  offset="0.6648" style="stop-color:#54B848;stop-opacity:0.9"/>
						<stop  offset="0.9419" style="stop-color:#54B848"/>
					</linearGradient>
					<path style="fill:url(#SVGID_00000133487183499179593360000010547611593309469851_);" d="M57.7,34.8c1.4,0.2,2.8,0.3,4.2,0.2
						c1.4-0.1,2.7-0.4,3.9-1c1.2-0.6,2.3-1.4,3.2-2.3c0.9-1,1.7-2.1,2.3-3.4c-0.1,1.4-0.7,2.8-1.6,4.1c-0.4,0.6-0.9,1.2-1.5,1.7
						c-0.3,0.2-0.6,0.5-0.9,0.7c-0.3,0.2-0.6,0.4-1,0.6c-1.4,0.7-2.9,0.9-4.4,0.9C60.4,35.9,59,35.6,57.7,34.8z"/>
				</g>
				<g>
					
						<linearGradient id="SVGID_00000033341364878532301140000014400983511279413392_" gradientUnits="userSpaceOnUse" x1="58.6866" y1="58.6231" x2="73.0879" y2="58.6231" gradientTransform="matrix(1 0 0 -1 0 93.4609)">
						<stop  offset="2.680000e-02" style="stop-color:#03B290"/>
						<stop  offset="0.2421" style="stop-color:#1BB47B;stop-opacity:0.9663"/>
						<stop  offset="0.6648" style="stop-color:#54B848;stop-opacity:0.9"/>
						<stop  offset="0.9419" style="stop-color:#54B848"/>
					</linearGradient>
					<path style="fill:url(#SVGID_00000033341364878532301140000014400983511279413392_);" d="M58.9,37.6c1.4,0.2,2.8,0.3,4.2,0.2
						c1.4-0.1,2.7-0.4,3.9-1c1.2-0.6,2.3-1.4,3.2-2.3c0.9-1,1.7-2.1,2.3-3.4c-0.1,1.4-0.7,2.8-1.6,4.1c-0.4,0.6-0.9,1.2-1.5,1.7
						c-0.3,0.2-0.6,0.5-0.9,0.7c-0.3,0.2-0.6,0.4-1,0.6c-1.4,0.7-2.9,0.9-4.4,0.9C61.6,38.7,60.2,38.3,58.9,37.6z"/>
				</g>
			</g>
		</g>
	</g>
</g>
</svg>
