<?xml version="1.0" encoding="utf-8"?>
<!-- Generator: Adobe Illustrator 27.3.1, SVG Export Plug-In . SVG Version: 6.00 Build 0)  -->
<svg version="1.1" id="Layer_1" xmlns="http://www.w3.org/2000/svg" xmlns:xlink="http://www.w3.org/1999/xlink" x="0px" y="0px"
	 viewBox="0 0 225.19 84.17" style="enable-background:new 0 0 225.19 84.17;" xml:space="preserve">
<style type="text/css">
	.st0{opacity:0.6;fill:url(#SVGID_1_);}
	.st1{opacity:0.1;}
	.st2{fill:#FFFFFF;}
	.st3{font-family:'TimesNewRomanPS-BoldMT';}
	.st4{font-size:15.3702px;}
	.st5{font-family:'ArtifaktElement-Hair';}
	.st6{font-size:15px;}
	.st7{letter-spacing:2.83;}
	.st8{display:none;}
	.st9{display:inline;}
	.st10{fill:#109ED9;}
	.st11{fill:none;stroke:#FFFFFF;stroke-width:4;stroke-miterlimit:10;}
	.st12{fill:#FFFFFF;stroke:#FFFFFF;stroke-width:4;stroke-miterlimit:10;}
	.st13{clip-path:url(#SVGID_00000017482280273324008900000013900597549745909178_);}
	.st14{opacity:0.6;}
	.st15{fill:url(#SVGID_00000033330194015179833030000008933057229976986522_);}
	.st16{fill:url(#SVGID_00000084490539276680493290000018346501673711445417_);}
	.st17{fill:url(#SVGID_00000065784665108706742420000001219481510448379559_);}
</style>
<linearGradient id="SVGID_1_" gradientUnits="userSpaceOnUse" x1="-9.094947e-13" y1="42.0851" x2="225.1915" y2="42.0851">
	<stop  offset="0.0268" style="stop-color:#03B290"/>
	<stop  offset="0.2421" style="stop-color:#1BB47B;stop-opacity:0.9663"/>
	<stop  offset="0.6648" style="stop-color:#54B848;stop-opacity:0.9"/>
	<stop  offset="0.9419" style="stop-color:#54B848"/>
</linearGradient>
<path class="st0" d="M194.72,84.17H30.47C13.64,84.17,0,70.53,0,53.7V30.47C0,13.64,13.64,0,30.47,0h164.26
	c16.83,0,30.47,13.64,30.47,30.47V53.7C225.19,70.53,211.55,84.17,194.72,84.17z"/>
<g class="st1">
	<g>
		<path class="st2" d="M220.89,60.23c-25-11.3-54.27-12.46-76.9,4.44c-7.28,5.25-13.65,11.91-19.13,19.5
			c3.29-8.8,8.96-16.8,16.18-23.18C163.5,40.91,197.8,41.81,220.89,60.23L220.89,60.23z"/>
	</g>
	<g>
		<path class="st2" d="M206.09,29.67c-24.77-5.64-52.57-3.22-73.07,12.66c-12.35,9.41-21.29,22.13-27.39,36.62
			c1.7-10.46,6.13-20.58,12.62-29.28C138.4,22.33,176.08,15.3,206.09,29.67L206.09,29.67z"/>
	</g>
	<g>
		<path class="st2" d="M197.27,9.37c-24.77-5.64-52.57-3.22-73.07,12.66c-12.35,9.41-21.29,22.13-27.39,36.62
			c1.7-10.46,6.13-20.58,12.62-29.28C129.58,2.02,167.26-5.01,197.27,9.37L197.27,9.37z"/>
	</g>
</g>
<text transform="matrix(1 0 0 1 92.7991 43.3056)" class="st2 st3 st4">DeBTHs GLOBAL</text>
<text transform="matrix(1.0583 0 0 1 92.9979 64.4909)" class="st2 st5 st6 st7">Consultancy</text>
<g class="st8">
	<g class="st9">
		<path class="st10" d="M56.76,13.43c6.21-0.03,10.82-0.87,16.22-4.04C73.4,17.92,60.54,20.88,56.76,13.43L56.76,13.43z"/>
	</g>
	<g class="st9">
		<path class="st10" d="M59.26,18.59c3.49-0.71,6.37-1.21,9.31-2.62c2.97-1.41,5.05-3.23,7.67-5.7
			C78.18,19.4,65.36,25.37,59.26,18.59L59.26,18.59z"/>
	</g>
	<g class="st9">
		<path class="st10" d="M60.75,22.02c3.49-0.71,6.37-1.21,9.31-2.62c2.97-1.41,5.05-3.23,7.67-5.7
			C79.67,22.83,66.85,28.8,60.75,22.02L60.75,22.02z"/>
	</g>
</g>
<g>
	<path class="st11" d="M55.13,36.55c-0.69,1.85-1.87,3.08-3.21,4.1c-1.58,1.21-3.6,2.74-6.57,2.86c-0.37,0.01-0.73,0-1.07-0.03
		c-1.62-0.16-2.98-0.79-4.24-1.36c-2.55-1.14-3.09-1.48-4.94-1.73c-2.05-0.27-3.52,0.17-4.19,0.5c-2.6,1.29-3.8,3.32-4.48,4.6
		c-1.44,2.68-1.57,5.13-1.63,6.49c-0.06,1.44-0.14,3.64,0.88,6.18c0.2,0.5,0.75,1.88,1.85,3.3c-2.72-0.65-3.51-0.86-4.79-1.49
		c-1.63-0.8-3.18-1.59-4.49-3.31c-1.74-2.3-1.91-4.77-1.98-5.87c-0.16-2.85,0.78-4.97,1.43-6.4c1.56-3.41,3.87-5.39,5.17-6.49
		c2.69-2.26,5.3-3.99,9.55-5.55c2.29-0.84,5.35-1.62,10-2.19c0.56-0.07,3.79-0.52,7.18-0.23c0.37,0.03,2.23,0.33,4.25,1.28
		c1.01,0.47,1.2,0.87,1.35,1.06C56.37,33.73,55.31,36.06,55.13,36.55z"/>
	<path class="st11" d="M70.32,54.46c-0.27,0.64-0.57,1.24-0.91,1.81c-0.68-0.19-1.38-0.33-2.08-0.48c-1.25-0.26-3.77-0.66-7-0.21
		c-1.35,0.19-2.8,0.52-10.15,3.63c-3.59,1.52-5.38,2.28-6.19,2.67c-2.23,1.07-3.88,1.99-5.33,2.61c-0.26-0.12-0.54-0.24-0.85-0.37
		c-1.14-0.47-3.31-1-7.6-2.03c-1.07-0.26-1.95-0.47-2.69-0.64c-1.1-1.42-1.65-2.79-1.85-3.3c-1.02-2.54-0.94-4.74-0.88-6.18
		c0.06-1.36,0.19-3.81,1.63-6.49c0.69-1.27,1.88-3.31,4.48-4.6c0.67-0.33,2.14-0.77,4.19-0.5c1.86,0.25,2.39,0.58,4.94,1.73
		c1.26,0.56,2.63,1.2,4.24,1.36l-8.17,3.69c-0.22,0.05-1.68,0.71-2.43,2.19c-0.58,1.13-0.47,2.42,0.03,3.34
		c0.87,1.62,2.16,2.21,3.47,2.41c2.65,0.4,5.47-0.81,7.15-1.53c1.81-0.77,3.36-1.89,6.38-4.08c2.15-1.56,2.57-1.98,5.13-3.84
		c3.12-2.29,4.7-3.43,5.77-3.63c2.66-0.5,5.67,0.59,7.56,2.68c0.27,0.3,1.6,1.82,2,4.21C71.28,49.53,71.55,51.54,70.32,54.46z"/>
	<line class="st12" x1="44.66" y1="43.31" x2="44.28" y2="43.48"/>
	<path class="st11" d="M69.41,56.27c-3.56,6.04-10.61,8.8-11.85,9.29c-4.67,1.83-8.39,1.74-9.29,1.71
		c-2.21-0.09-4.03-0.51-5.13-0.83c-2.08-0.6-2.73-1.16-4.48-1.95c1.46-0.62,3.1-1.54,5.33-2.61c0.82-0.39,2.61-1.15,6.19-2.67
		c7.34-3.11,8.8-3.44,10.15-3.63c3.23-0.45,5.74-0.05,7,0.21C68.03,55.94,68.72,56.08,69.41,56.27z"/>
	<path class="st12" d="M27.53,61.45c0.9,1.16,2.17,2.35,3.92,3.13c1.23,0.54,2.26,0.69,2.51,0.72c1.7,0.22,3.08-0.11,4.71-0.81"/>
	<path class="st11" d="M70.82,56.53c1.5,0.41,2.94,1.03,4.25,2.32c0.74,0.73,2.32,2.55,2.64,5.26c0.53,4.45-2.78,7.63-3.63,8.38
		c-2.73,2.42-5.81,2.64-7.64,2.78c-0.05,0-0.12,0.01-0.23,0.01c-1.01,0.05-4.55,0.11-6.23-1.56c-0.27-0.27-0.85-0.84-1.02-1.76
		c-0.06-0.34-0.28-1.28,0.19-1.71c0.63-0.57,2.29-0.03,3.2,0.96c0.55,0.59,0.47,0.96,1.07,1.84c0.1,0.15,0.86,1.22,1.84,1.82
		c0.31,0.19,0.62,0.32,0.94,0.41c1.62,0.48,3.28-0.07,3.73-0.23"/>
</g>
<g>
	<defs>
		<circle id="SVGID_00000140001976221976994650000007024808240719463818_" cx="72.55" cy="31.88" r="6"/>
	</defs>
	<clipPath id="SVGID_00000083062895724901077590000013374417899475105970_">
		<use xlink:href="#SVGID_00000140001976221976994650000007024808240719463818_"  style="overflow:visible;"/>
	</clipPath>
	<g style="clip-path:url(#SVGID_00000083062895724901077590000013374417899475105970_);">
		<circle class="st12" cx="72.49" cy="31.93" r="3.98"/>
		<g class="st14">
			<g>
				
					<linearGradient id="SVGID_00000111169835023193747730000010662892040919801242_" gradientUnits="userSpaceOnUse" x1="63.4874" y1="28.8667" x2="76.4931" y2="28.8667">
					<stop  offset="0.0268" style="stop-color:#03B290"/>
					<stop  offset="0.2421" style="stop-color:#1BB47B;stop-opacity:0.9663"/>
					<stop  offset="0.6648" style="stop-color:#54B848;stop-opacity:0.9"/>
					<stop  offset="0.9419" style="stop-color:#54B848"/>
				</linearGradient>
				<path style="fill:url(#SVGID_00000111169835023193747730000010662892040919801242_);" d="M63.81,29.39
					c2.24,0.79,4.52,1.15,6.64,0.62c1.06-0.24,2.07-0.69,2.99-1.32c0.92-0.63,1.75-1.42,2.53-2.34c-0.34,1.16-1.03,2.22-1.94,3.07
					c-0.45,0.43-0.98,0.78-1.53,1.09c-0.56,0.28-1.16,0.52-1.77,0.66c-1.23,0.3-2.53,0.25-3.73-0.07
					C65.81,30.78,64.69,30.22,63.81,29.39z"/>
			</g>
			<g>
				
					<linearGradient id="SVGID_00000063626201241574283170000017249220166077929395_" gradientUnits="userSpaceOnUse" x1="65.4742" y1="30.6812" x2="78.9746" y2="30.6812">
					<stop  offset="0.0268" style="stop-color:#03B290"/>
					<stop  offset="0.2421" style="stop-color:#1BB47B;stop-opacity:0.9663"/>
					<stop  offset="0.6648" style="stop-color:#54B848;stop-opacity:0.9"/>
					<stop  offset="0.9419" style="stop-color:#54B848"/>
				</linearGradient>
				<path style="fill:url(#SVGID_00000063626201241574283170000017249220166077929395_);" d="M65.68,33.25
					c1.33,0.21,2.64,0.26,3.91,0.15c1.27-0.13,2.5-0.41,3.61-0.97c1.12-0.53,2.14-1.27,3-2.2c0.87-0.93,1.58-2.01,2.19-3.22
					c-0.13,1.35-0.65,2.67-1.46,3.81c-0.4,0.58-0.89,1.08-1.43,1.55c-0.27,0.22-0.56,0.43-0.86,0.62c-0.29,0.2-0.6,0.37-0.93,0.52
					c-1.28,0.62-2.71,0.88-4.1,0.82C68.23,34.27,66.86,33.93,65.68,33.25z"/>
			</g>
			<g>
				
					<linearGradient id="SVGID_00000051369250139613263320000015991500354730794921_" gradientUnits="userSpaceOnUse" x1="66.5902" y1="33.2509" x2="80.0906" y2="33.2509">
					<stop  offset="0.0268" style="stop-color:#03B290"/>
					<stop  offset="0.2421" style="stop-color:#1BB47B;stop-opacity:0.9663"/>
					<stop  offset="0.6648" style="stop-color:#54B848;stop-opacity:0.9"/>
					<stop  offset="0.9419" style="stop-color:#54B848"/>
				</linearGradient>
				<path style="fill:url(#SVGID_00000051369250139613263320000015991500354730794921_);" d="M66.8,35.82
					c1.33,0.21,2.64,0.26,3.91,0.15c1.27-0.13,2.5-0.41,3.61-0.97c1.12-0.53,2.14-1.27,3-2.2c0.87-0.93,1.58-2.01,2.19-3.22
					c-0.13,1.35-0.65,2.67-1.46,3.81c-0.4,0.58-0.89,1.08-1.43,1.55c-0.27,0.22-0.56,0.43-0.86,0.62c-0.29,0.2-0.6,0.37-0.93,0.52
					c-1.28,0.62-2.71,0.88-4.1,0.82C69.34,36.84,67.98,36.5,66.8,35.82z"/>
			</g>
		</g>
	</g>
</g>
</svg>
