<?xml version="1.0" encoding="UTF-8"?>
<svg id="Layer_1" data-name="Layer 1" xmlns="http://www.w3.org/2000/svg" viewBox="0 0 242.34 83.93">
  <defs>
    <style>
      .cls-1 {
        opacity: .98;
      }

      .cls-1, .cls-2, .cls-3 {
        fill: #00a79d;
      }

      .cls-1, .cls-3 {
        stroke: #00a79d;
        stroke-miterlimit: 10;
      }

      .cls-4 {
        opacity: .85;
      }

      .cls-4, .cls-5 {
        fill: #1c75bc;
      }
    </style>
  </defs>
  <g>
    <g>
      <path class="cls-5" d="m107.65,63.73l-1.15,1.08c-.82-.81-1.73-1.42-2.71-1.84-.98-.42-1.94-.63-2.87-.63-1.16,0-2.26.29-3.31.85-1.05.57-1.86,1.34-2.44,2.32s-.86,2-.86,3.09.3,2.17.89,3.17,1.42,1.79,2.47,2.36,2.2.86,3.46.86c1.52,0,2.81-.43,3.86-1.29s1.67-1.97,1.87-3.34h-4.71v-1.43h6.37c-.01,2.28-.69,4.1-2.03,5.44-1.34,1.34-3.14,2.01-5.39,2.01-2.73,0-4.9-.93-6.49-2.79-1.23-1.43-1.84-3.09-1.84-4.97,0-1.4.35-2.7,1.05-3.91s1.67-2.15,2.89-2.83c1.23-.68,2.61-1.02,4.16-1.02,1.25,0,2.43.23,3.54.68,1.11.45,2.18,1.18,3.24,2.18Z"/>
      <path class="cls-5" d="m113.98,60.88h1.41v15.15h-1.41v-15.15Z"/>
      <path class="cls-5" d="m126.57,64.82c1.68,0,3.08.61,4.19,1.83,1.01,1.11,1.51,2.43,1.51,3.95s-.53,2.86-1.6,4-2.43,1.71-4.1,1.71-3.05-.57-4.11-1.71-1.6-2.48-1.6-4,.5-2.83,1.51-3.94c1.11-1.23,2.51-1.84,4.2-1.84Zm0,1.38c-1.17,0-2.17.43-3.01,1.3-.84.86-1.26,1.91-1.26,3.13,0,.79.19,1.53.58,2.21.38.68.9,1.21,1.55,1.58.65.37,1.37.56,2.15.56s1.5-.19,2.15-.56c.65-.37,1.17-.9,1.55-1.58.38-.68.58-1.42.58-2.21,0-1.23-.42-2.27-1.27-3.13-.84-.86-1.85-1.3-3.01-1.3Z"/>
      <path class="cls-5" d="m138.05,76.03v-15.15h1.41v6.1c.59-.72,1.25-1.26,1.98-1.62.73-.36,1.53-.54,2.4-.54,1.55,0,2.87.56,3.96,1.68,1.09,1.12,1.64,2.48,1.64,4.08s-.55,2.93-1.66,4.05c-1.1,1.12-2.43,1.68-3.98,1.68-.89,0-1.7-.19-2.42-.57s-1.36-.95-1.92-1.72v2.01h-1.41Zm5.63-1.08c.78,0,1.5-.19,2.17-.58s1.19-.93,1.58-1.62c.39-.7.59-1.43.59-2.21s-.2-1.52-.59-2.22c-.39-.7-.92-1.25-1.59-1.64-.67-.39-1.38-.59-2.13-.59s-1.5.2-2.19.59c-.69.39-1.22.92-1.59,1.58-.37.66-.56,1.41-.56,2.24,0,1.27.42,2.32,1.25,3.17s1.86,1.28,3.07,1.28Z"/>
      <path class="cls-5" d="m165.97,65.1v10.93h-1.39v-1.88c-.59.72-1.25,1.26-1.98,1.62s-1.54.54-2.41.54c-1.55,0-2.87-.56-3.96-1.68-1.09-1.12-1.64-2.49-1.64-4.09s.55-2.92,1.66-4.04c1.1-1.12,2.43-1.68,3.99-1.68.9,0,1.71.19,2.44.57s1.37.95,1.91,1.72v-2.01h1.39Zm-5.62,1.08c-.78,0-1.51.19-2.17.58-.66.38-1.19.93-1.58,1.62s-.59,1.43-.59,2.21.2,1.51.59,2.21.92,1.25,1.59,1.64c.67.39,1.38.59,2.14.59s1.5-.19,2.19-.58c.69-.39,1.22-.91,1.59-1.58.37-.66.56-1.41.56-2.24,0-1.26-.42-2.32-1.25-3.17-.83-.85-1.86-1.27-3.08-1.27Z"/>
      <path class="cls-5" d="m172.01,60.88h1.41v15.15h-1.41v-15.15Z"/>
    </g>
    <g>
      <g>
        <path class="cls-3" d="m93.71,50.26v-17.14h11.03c3.15,0,5.56.74,7.26,2.21,1.69,1.47,2.54,3.56,2.54,6.26,0,1.6-.33,3.04-.99,4.32s-1.59,2.29-2.79,3.02c-.75.46-1.67.8-2.78,1.01-1.11.21-2.53.32-4.26.32h-10Zm3.99-3.23h5.16c2.75,0,4.69-.43,5.84-1.28s1.72-2.26,1.72-4.23c0-1.75-.48-3.08-1.43-3.98-.95-.9-2.36-1.35-4.22-1.35h-7.07v10.85Z"/>
        <path class="cls-1" d="m121.84,50.26v-17.14h17.54v2.92h-13.55v3.83h7.91v2.92h-7.91v4.25h13.72v3.23h-17.71Z"/>
        <path class="cls-1" d="m146.91,50.26v-17.14h14.69c1.35,0,2.33.27,2.93.79.61.53.91,1.37.91,2.53v2.09c0,.82-.25,1.48-.76,1.97-.51.49-1.24.8-2.19.92.98.13,1.74.48,2.28,1.05.54.57.8,1.32.8,2.24v2.19c0,1.14-.42,1.98-1.25,2.53s-2.1.83-3.79.83h-13.62Zm13.02-14.35h-9.1v4.09h9.1c.69,0,1.17-.09,1.43-.28.26-.18.4-.5.4-.96v-1.62c0-.44-.13-.76-.4-.95s-.74-.28-1.43-.28Zm0,6.91h-9.1v4.36h9.1c.76,0,1.27-.11,1.53-.34.26-.23.4-.63.4-1.2v-1.3c0-.57-.13-.97-.4-1.19-.27-.22-.78-.33-1.53-.33Z"/>
        <path class="cls-1" d="m181.25,36.18v14.07h-3.99v-14.07h-7.86v-3.06h19.75v3.06h-7.9Z"/>
        <path class="cls-1" d="m194.03,50.26v-17.14h3.99v6.65h12.45v-6.65h4.02v17.14h-4.02v-7.38h-12.45v7.38h-3.99Z"/>
        <path class="cls-3" d="m238.09,36.12h-11.22v3.68h10.68c1.68,0,2.81.29,3.4.86.59.57.88,1.64.88,3.19v2.35c0,1.56-.29,2.62-.88,3.19-.59.57-1.72.86-3.4.86h-10.59c-1.68,0-2.81-.29-3.4-.86-.59-.57-.88-1.64-.88-3.19v-.47l3.52-.73v2.03h12.11v-3.91h-10.69c-1.66,0-2.79-.29-3.37-.86-.58-.57-.88-1.64-.88-3.19v-1.9c0-1.56.29-2.62.88-3.19.58-.57,1.71-.86,3.37-.86h9.73c1.61,0,2.72.28,3.33.83s.92,1.53.92,2.93v.36l-3.52.83v-1.95Z"/>
      </g>
      <rect class="cls-4" x="135.82" y="39.29" width="3.84" height="4.05"/>
    </g>
  </g>
  <g>
    <g>
      <path class="cls-5" d="m77.09,30.12c-.4-.92.49.71-3.52-6.65-.99-1.81-4.52-7.73-10.88-12.08-1.88-1.3-6.27-4.46-12.16-5.11,0,0-7.95-1.59-16.15,3.46-.32.21-1.05.78-1.25.93-2.69,2.14-5.3,3.97-6.99,12.67-1.9,9.73-.58,15.55.47,16.94.62.83,1.62.99,2.23.61,5.19-3.15,6.64-5.15,10.69-8.21,3.7-2.81,8.28-8.31,17.53-8.67,4.28-.17,9.48-.11,14.43,3.14,1.41.92,1.49.92,2.74,1.81.28.19.7.54,1.08.89.45.42,1.59,1.72,1.55,2.17.08-.15.47-1.39.23-1.9Zm-19.46-8.77c-.78,0-1.5-.21-2.12-.58-.71-.41-1.27-1.04-1.62-1.79-.25-.53-.4-1.11-.4-1.73,0-.16.01-.31.03-.47.22-2.06,1.96-3.67,4.08-3.68.49,0,.97.09,1.42.25.66.24,1.24.64,1.7,1.16.48.55.82,1.23.96,1.98h0c.03.24.06.48.06.72.01,2.28-1.83,4.13-4.12,4.14Z"/>
      <g>
        <path class="cls-5" d="m51.17,15.81c3.33.87,6.49-.16,8.32-3.14-.59,3.69-5.42,5.38-8.32,3.14h0Z"/>
        <path class="cls-5" d="m52.81,18.39c3.86.25,7.25-1.69,8.44-5.46.16,4.2-4.71,7.12-8.44,5.46h0Z"/>
        <path class="cls-5" d="m53.81,20.11c3.23.26,6.55-1.34,7.79-4,.25-.46.46-.94.65-1.45.02.54-.07,1.08-.22,1.61l.02-.09c-.79,3.44-5.09,5.34-8.24,3.94h0Z"/>
      </g>
    </g>
    <path class="cls-2" d="m76.13,36.55c.07.84-2.07,1.26-4.67,3.22-2.11,1.59-3.97,3.24-5.21,4.98-3.67,5.15-6.97,9.98-10.65,15.12-5.39,7.51-8.12,11.3-9.83,13.02-3.09,3.09-5.33,5.94-9.2,8.46-3,1.96-6.61,2.85-10.17,2.52-.02,0-.05,0-.07,0-6.05-.58-10.2-4.98-13.51-8.3-2.84-2.84-4.56-5.73-6.03-8.45-2.16-3.98-3.66-8.55-4.59-11.73-.98-3.33-1.15-4.81-1.46-7.18C.39,45.56,0,41.87,0,33.77c0-2.81.09-2.82.59-6.66.57-4.37,2.49-10.46,3.83-12.87,2.63-4.71,5.53-6.51,7.91-8.2C21.41-.42,46.95-1.55,47.45,1.94c.32,2.24-11.5-.68-18.23,4.31-2.9,2.15-5.11,4.95-7.03,14.66-.51,2.57-.89,5.97-1.2,10.23-.57,7.78,1.38,17.36,3.98,20.64.06.07.11.14.17.21.47.57,1.34.61,1.84.07,0,0,0,0,0,0,.35-.38,6.21-6.93,6.71-7.44,2.73-2.77,6.11-5.81,12.16-10.46s7.31-4.49,8.55-5.01c.6-.26,1.94-.59,2.7-.7,7-1.04,9.94.8,13.2,2.69,1.54.89,5.71,4.28,5.81,5.43Z"/>
  </g>
</svg>